<?xml version="1.0" encoding="UTF-8"?>
<svg id="_Слой_1" data-name="Слой 1" xmlns="http://www.w3.org/2000/svg" viewBox="0 0 120 64">
  <defs>
    <style>
      .cls-1 {
        letter-spacing: 0em;
      }

      .cls-2 {
        letter-spacing: 0em;
      }

      .cls-3 {
        fill: #f1f2f2;
        stroke-width: 0px;
      }

      .cls-4 {
        letter-spacing: .02em;
      }

      .cls-5 {
        fill: #fff;
        font-family: FranklinGothic-Heavy, 'Franklin Gothic Heavy';
        font-size: 10px;
        font-weight: 800;
      }
    </style>
  </defs>
  <g>
    <path class="cls-3" d="m76.83,25.58c-.88.4-1.62.9-2.58,1-1.6,0-3.33-.84-4.84-1.4.81.3,4.56.68,4.66.68.86-.02,1.61-.05,2.76-.28Z"/>
    <path class="cls-3" d="m69.24,31.63c-6.95-.71-14.17-2.2-21.22-3.14-1.41-.19-4.21-.63-4.21-.63,0,0,21.08,1.38,31.7,3.49-2.44-.08-3.85.52-6.27.28Z"/>
    <path class="cls-3" d="m101.67,35.12c-1.85-2.95-5.5-4.93-9.67-4.84s-7.73,2.19-9.47,5.22c3.01-8.76,15.78-9.01,19.13-.37Z"/>
    <path class="cls-3" d="m4.84,27.1c-1.05.15-3.77-1.11-3.77-1.11,0,0,2.45.84,3.41.24.12-.07.24-.3.32-.48l-4.44-1.66,9.93,1.83,1.19.63c-2.36.34-5.27,1.99-7.04,4.1.96-1.44,2.2-2.73,3.66-3.66l-2.11-.79c-.17.21-.66.84-1.14.91Z"/>
    <path class="cls-3" d="m75.23,36.85s.06-.08.09-.12c-.13.21-.17.23-.09.12Z"/>
    <path class="cls-3" d="m19.34,24c-5.58-.68-11.35-1.46-17.75-2.36,3.17.12,6.33.26,9.5.43,6.19-.84,26.07-3.53,36.92-4.74,7.26-.74,14.69-.9,21.86.63,1.24.28,2.51.61,3.7,1.05,4.39,1.79,8.63,4.06,12.77,6.39,3.19-.38,6.51-.25,8.98.35,9.02,2.22,16.36,6.29,23.59,10.67-4.31-1.94-6.98-3.27-11.32-5.08-.81-.33-1.64-.66-2.49-.99.9.71,1.11,1.17,1.65,1.58.57.44,3,1.54,3,1.54l-2.2-.39c-3.69-3.29-8.51-4.77-10.84-5.33-1.02-.23-2.03-.42-3.03-.56-4.94-.75-9.94.16-14.59,1.91-.02.01-.03.03-.05.04-.94,2.63-2.03,5.3-3.74,7.6.38-.61,1.48-2.78,2.09-7.54-1.97-.13-5.19-.38-6.04-.44-18.13-1.3-30.92-2.36-43.64-3.77,1.1,1.02,2.12,2.9,2.77,3.9.95,1.5,1.88,3.01,2.73,4.57-1.27-1.67-2.39-2.93-3.61-4.48-1.25-1.59-4.04-3.42-6.27-4.12-1.2-.37-2.58-.63-4-.85Zm62.81,2.23l-.02.03s.03,0,.04-.01c0,0-.01,0-.02-.01Zm-35.75-1.55c10,.97,19.98,2.14,29.93,3.51.32-.36.36-1.12.09-1.65.48.41.93,1.02,1.34,1.84.01,0,.02,0,.04,0,.47-.39,1.01-.74,1.62-1.06-.37-.39-.75-.77-1.14-1.16-.42-.38-.84-.85-1.35-1.09-2.74-.62-5.55-.93-8.33-1.36,2.86.12,4.93-.02,7.78.32.72.19,1.09.47,1.68.88,1.15.8,3.13,1.35,4.08,1.29-2.62-1.77-4.87-3.25-7.83-4.82-.96-.51-2.16-1.09-3.22-1.37-8.18-1.95-17.12-1.48-25.42-.62-2.86.33-5.4.68-8.22,1.18.42.27.93.6,1.3.81,1.44.82,2.96,1.54,4.51,2.16,1.02.41,2.08.78,3.14,1.11Zm-16.63-1.44c-1.23-.38-2.47-.81-3.72-1.31,5.69,1.17,11.32,1.81,16.86,2.39-3.04-.69-6.06-1.68-8.55-3.13-.66.14-1.35.28-2.06.44.78-.36,3-1.1,5.59-1.8-5.08.59-10.21,1.22-15.26,1.69-2.59.24-6.34.52-9.21.66,5.45.29,10.91.65,16.35,1.06Z"/>
    <path class="cls-3" d="m25.28,34.02c-1.86-2.93-5.5-4.88-9.64-4.8-3.67.07-6.89,1.73-8.78,4.2l-.18-.16c3.71-7.54,15.38-7.39,18.61.77Z"/>
  </g>
  <text class="cls-5" transform="translate(30.16 46.56) scale(1.2 1)"><tspan x="0" y="0">Spo</tspan><tspan class="cls-4" x="17.88" y="0">r</tspan><tspan class="cls-1" x="21.89" y="0">t Ca</tspan><tspan class="cls-2" x="40.26" y="0">r</tspan><tspan x="44.11" y="0">s</tspan></text>
</svg>